# xmcd
#
# Track frame offsets:
#	150
#	18909
#	37833
#	56426
#	73688
#	93310
#	108888
#	128012
#	145332
#	163712
#	178268
#	194083
#	217276
#	238534
#
# Disc length: 3407 seconds
# Revision: 0
# Processed by: cddbd v1.5.2PL0 Copyright (c) Steve Scherf et al.
# Submitted via: dBpowerAMP V12.0
#
DISCID=c80d4d0e
DTITLE=MALAYA BLUE - BOURBON STREET
DYEAR=2014
DGENRE=Blues
TTITLE0=BOURBON STREET
TTITLE1=FORGIVENESS
TTITLE2=BITTER MOON
TTITLE3=LOST GIRL
TTITLE4=LADY SINGS THE BLUES
TTITLE5=IVORY TOWER
TTITLE6=BLUESVILLE UK
TTITLE7=DAWN
TTITLE8=GUILTY
TTITLE9=I'VE CRIED A LITTLE
TTITLE10=COLD HEARTED MAN
TTITLE11=HOW DID YOU DO THIS
TTITLE12=COLD LIGHT OF DAY
TTITLE13=PROMISED LAND
EXTD=
EXTT0=
EXTT1=
EXTT2=
EXTT3=
EXTT4=
EXTT5=
EXTT6=
EXTT7=
EXTT8=
EXTT9=
EXTT10=
EXTT11=
EXTT12=
EXTT13=
PLAYORDER=
